<svg width="281" height="272" viewBox="0 0 281 272" fill="none" xmlns="http://www.w3.org/2000/svg">
<path fill-rule="evenodd" clip-rule="evenodd" d="M139.358 4.03047C143.95 24.1828 148.406 42.8323 152.198 53.0793C163.508 52.5328 170.842 49.4815 178.519 46.6806C187.955 43.2194 195.883 38.7791 202.782 33.61C208.037 30.1716 211.008 31.7428 210.573 40.6235C208.974 48.8894 204.702 55.197 198.213 59.9561C198.556 59.9334 198.898 59.9334 199.241 59.9106C197.985 60.0244 196.728 60.1383 195.448 60.2749C211.784 65.0568 223.688 74.9622 227.846 93.7028C228.143 103.153 225.607 107.502 221.632 102.083C200.703 85.528 182.197 76.7156 164.376 81.2015C170.385 95.4789 182.928 105.339 195.905 115.95C172.555 116.292 151.216 107.229 132.344 89.2625C111.256 99.5777 80.549 96.7541 68.9653 112.83C62.2025 121.096 60.9002 116.906 62.7052 105.635C67.6402 87.6685 76.048 76.0553 88.3399 71.501C70.2676 72.1842 57.4274 68.0398 49.5222 63.5312C58.7297 60.0928 70.0163 59.7057 82.788 58.3166L63.9389 50.6883C60.6032 48.5251 62.0654 47.2271 67.4803 46.6806C91.6985 45.7698 112.924 46.8856 128.871 51.6902C128.62 38.2326 122.908 24.7749 116.282 11.3172L133.555 0L139.358 4.03047Z" fill="url(#paint0_linear_310_321)"/>
<path fill-rule="evenodd" clip-rule="evenodd" d="M193.415 59.8196C209.157 64.4421 220.649 73.9831 224.647 92.0633C224.944 101.172 223.665 104.792 219.827 99.555C199.652 83.5925 180.621 75.691 163.416 80.0175C169.197 93.7939 180.712 104.565 193.232 114.812C170.705 115.13 150.736 105.111 132.527 87.7824C112.193 97.7333 82.5824 95.0008 71.3872 110.531C64.8528 118.501 63.5962 114.47 65.3554 103.585C70.1077 86.2567 78.2185 75.0534 90.0763 70.6586C70.6103 71.3872 57.7473 68.7458 50.4133 63.2808C40.4518 66.6053 32.7522 71.0457 27.4059 76.6701C27.2917 76.784 27.1546 76.9206 27.0175 77.0345C19.5236 83.547 13.6975 91.0159 9.4022 99.2362C4.90127 107.866 2.11389 117.294 0.880127 127.222C-2.31851 152.771 3.3248 180.757 15.7995 205.008C27.703 228.12 45.7295 247.772 68.1885 258.474C82.1483 265.146 97.8444 269.495 115.46 271.089C133.235 272.683 152.952 271.476 174.886 267.036C191.176 263.711 205.57 258.588 218.159 251.916C231.296 244.948 242.4 236.341 251.585 226.481C264.95 212.112 274.135 194.67 278.247 174.859C282.223 155.754 281.492 134.395 275.323 111.328C273.746 106.045 271.873 101.195 269.771 96.7086C267.646 92.2683 265.316 88.2606 262.734 84.6855C254.578 73.3911 243.931 66.0816 231.136 62.2561C220.146 58.9998 207.489 58.2939 193.415 59.8196Z" fill="url(#paint1_linear_310_321)"/>
<defs>
<linearGradient id="paint0_linear_310_321" x1="138.696" y1="0" x2="138.696" y2="117.166" gradientUnits="userSpaceOnUse">
<stop stop-color="#1F51CE"/>
<stop offset="1" stop-color="#0D116B"/>
</linearGradient>
<linearGradient id="paint1_linear_310_321" x1="140.357" y1="59.0496" x2="140.357" y2="271.76" gradientUnits="userSpaceOnUse">
<stop stop-color="#8D1BA4"/>
<stop offset="1" stop-color="#3F0A54"/>
</linearGradient>
</defs>
</svg>
