<svg width="281" height="272" viewBox="0 0 281 272" fill="none" xmlns="http://www.w3.org/2000/svg">
<g clip-path="url(#clip0_9_268)">
<path fill-rule="evenodd" clip-rule="evenodd" d="M139.62 4.03047C144.213 24.1828 148.668 42.8323 152.461 53.0793C163.77 52.5328 171.104 49.4815 178.781 46.6806C188.217 43.2194 196.145 38.7791 203.045 33.61C208.3 30.1716 211.27 31.7428 210.836 40.6235C209.236 48.8894 204.964 55.197 198.475 59.9561C198.818 59.9334 199.161 59.9334 199.503 59.9106C198.247 60.0244 196.99 60.1383 195.711 60.2749C212.047 65.0568 223.95 74.9622 228.108 93.7028C228.405 103.153 225.869 107.502 221.894 102.083C200.966 85.528 182.459 76.7156 164.638 81.2015C170.647 95.4789 183.19 105.339 196.168 115.95C172.818 116.292 151.478 107.229 132.606 89.2625C111.518 99.5777 80.8112 96.7541 69.2275 112.83C62.4647 121.096 61.1624 116.906 62.9674 105.635C67.9024 87.6685 76.3102 76.0553 88.6021 71.501C70.5298 72.1842 57.6896 68.0398 49.7844 63.5312C58.9919 60.0928 70.2785 59.7057 83.0502 58.3166L64.2011 50.6883C60.8654 48.5251 62.3276 47.2271 67.7425 46.6806C91.9607 45.7698 113.186 46.8856 129.133 51.6903C128.882 38.2326 123.17 24.7749 116.544 11.3172L133.817 0L139.62 4.03047Z" fill="url(#paint0_linear_9_268)"/>
<path fill-rule="evenodd" clip-rule="evenodd" d="M193.677 59.8196C209.419 64.4421 220.911 73.9831 224.91 92.0633C225.207 101.172 223.927 104.792 220.089 99.555C199.915 83.5925 180.883 75.691 163.679 80.0175C169.459 93.7939 180.974 104.565 193.495 114.812C170.967 115.13 150.998 105.111 132.789 87.7824C112.455 97.7333 82.8446 95.0008 71.6494 110.531C65.115 118.501 63.8584 114.47 65.6177 103.585C70.3699 86.2567 78.4808 75.0534 90.3386 70.6586C70.8726 71.3872 58.0095 68.7458 50.6755 63.2808C40.714 66.6053 33.0145 71.0457 27.6682 76.6701C27.5539 76.784 27.4169 76.9206 27.2798 77.0345C19.7858 83.547 13.9597 91.0159 9.66444 99.2362C5.1635 107.866 2.37612 117.294 1.14236 127.222C-2.05627 152.771 3.58704 180.757 16.0617 205.008C27.9652 228.12 45.9918 247.772 68.4508 258.474C82.4105 265.146 98.1067 269.495 115.722 271.089C133.497 272.683 153.215 271.476 175.148 267.036C191.438 263.711 205.832 258.588 218.421 251.916C231.558 244.948 242.662 236.341 251.847 226.481C265.212 212.112 274.397 194.67 278.51 174.859C282.485 155.754 281.754 134.395 275.585 111.328C274.009 106.045 272.135 101.195 270.033 96.7086C267.908 92.2683 265.578 88.2606 262.996 84.6855C254.84 73.3911 244.193 66.0816 231.398 62.2561C220.409 58.9998 207.751 58.2939 193.677 59.8196Z" fill="url(#paint1_linear_9_268)"/>
</g>
<defs>
<linearGradient id="paint0_linear_9_268" x1="138.958" y1="0" x2="138.958" y2="117.166" gradientUnits="userSpaceOnUse">
<stop stop-color="#75AA00"/>
<stop offset="1" stop-color="#2F4400"/>
</linearGradient>
<linearGradient id="paint1_linear_9_268" x1="140.619" y1="59.0496" x2="140.619" y2="271.76" gradientUnits="userSpaceOnUse">
<stop stop-color="#F8344C"/>
<stop offset="1" stop-color="#981122"/>
</linearGradient>
<clipPath id="clip0_9_268">
<rect width="281" height="272" fill="white"/>
</clipPath>
</defs>
</svg>
