<svg width="1124" height="708" viewBox="0 0 1124 708" fill="none" xmlns="http://www.w3.org/2000/svg">
<g id="value counter" filter="url(#filter0_di_4_41)">
<path d="M80.3024 677.902C62.293 682.385 43.9479 671.431 40.6152 653.173C28.1935 585.125 29.1941 515.19 43.6833 447.33C60.5155 368.497 95.1078 294.543 144.828 231.094C194.548 167.645 258.086 116.373 330.608 81.1797C403.129 45.9865 482.722 27.7992 563.332 28.0017C643.941 28.2042 723.442 46.7912 795.785 82.3484C868.129 117.906 931.408 169.496 980.809 233.194C1030.21 296.892 1064.43 371.02 1080.87 449.936C1095.01 517.867 1095.66 587.807 1082.9 655.792C1079.48 674.032 1061.08 684.894 1043.09 680.321C1025.1 675.747 1014.36 657.471 1017.61 639.2C1027.96 581.155 1027.13 521.561 1015.07 463.639C1000.72 394.73 970.838 330.003 927.701 274.382C884.565 218.761 829.309 173.713 766.14 142.665C702.97 111.616 633.55 95.3862 563.163 95.2094C492.775 95.0326 423.275 110.914 359.95 141.644C296.625 172.375 241.144 217.145 197.729 272.548C154.313 327.951 124.107 392.528 109.41 461.364C97.0554 519.225 95.9318 578.814 105.985 636.91C109.149 655.197 98.3118 673.419 80.3024 677.902Z" fill="url(#paint0_linear_4_41)"/>
</g>
<defs>
<filter id="filter0_di_4_41" x="0.699989" y="0.700001" width="1122.6" height="715.965" filterUnits="userSpaceOnUse" color-interpolation-filters="sRGB">
<feFlood flood-opacity="0" result="BackgroundImageFix"/>
<feColorMatrix in="SourceAlpha" type="matrix" values="0 0 0 0 0 0 0 0 0 0 0 0 0 0 0 0 0 0 127 0" result="hardAlpha"/>
<feOffset dy="4"/>
<feGaussianBlur stdDeviation="15.65"/>
<feComposite in2="hardAlpha" operator="out"/>
<feColorMatrix type="matrix" values="0 0 0 0 0.925 0 0 0 0 0.572257 0 0 0 0 0.312187 0 0 0 0.2 0"/>
<feBlend mode="normal" in2="BackgroundImageFix" result="effect1_dropShadow_4_41"/>
<feBlend mode="normal" in="SourceGraphic" in2="effect1_dropShadow_4_41" result="shape"/>
<feColorMatrix in="SourceAlpha" type="matrix" values="0 0 0 0 0 0 0 0 0 0 0 0 0 0 0 0 0 0 127 0" result="hardAlpha"/>
<feOffset dx="11" dy="4"/>
<feGaussianBlur stdDeviation="15.2"/>
<feComposite in2="hardAlpha" operator="arithmetic" k2="-1" k3="1"/>
<feColorMatrix type="matrix" values="0 0 0 0 0 0 0 0 0 0 0 0 0 0 0 0 0 0 0.25 0"/>
<feBlend mode="normal" in2="shape" result="effect2_innerShadow_4_41"/>
</filter>
<linearGradient id="paint0_linear_4_41" x1="562" y1="28" x2="562" y2="1088" gradientUnits="userSpaceOnUse">
<stop stop-color="#FF8932"/>
<stop offset="1" stop-color="#CE702A"/>
</linearGradient>
</defs>
</svg>
